<svg xmlns="http://www.w3.org/2000/svg" xmlns:xlink="http://www.w3.org/1999/xlink" width="334" height="230" viewBox="0 0 334 230">
  <defs>
    <path id="bot-2-a" d="M0.833579175,0.543046358 L82.3522958,0.543046358 L82.3522958,36.9006623 C82.3522958,56.980419 66.0761258,73.2582781 46.003497,73.2582781 L37.1823779,73.2582781 C17.1074907,73.2582781 0.833579175,56.984834 0.833579175,36.9006623 L0.833579175,0.543046358 Z"/>
    <ellipse id="bot-2-c" cx="40.94" cy="9.139" rx="40.759" ry="9.139"/>
    <rect id="bot-2-e" width="13.853" height="26.225" x="146.263" y="43.053" rx="6.927"/>
    <path id="bot-2-f" d="M5.24780854,4.86879097 C5.24780854,2.68455286 7.02001806,0.913878022 9.2167116,0.913878022 L11.3210036,0.913878022 C13.5129682,0.913878022 15.2899066,2.6913114 15.2899066,4.86879097 L15.2899066,34.901695 C15.2899066,37.6739952 13.0362638,39.9213886 10.2688576,39.9213886 L10.2688576,39.9213886 C7.49580876,39.9213886 5.24780854,37.6698436 5.24780854,34.901695 L5.24780854,4.86879097 Z"/>
  </defs>
  <g fill="none" fill-rule="evenodd">
    <rect width="334" height="230" fill="#FFF"/>
    <g transform="translate(64 36)">
      <path fill="#572B23" d="M82.4374755,123.715232 L132.705492,123.715232 L132.705492,147.357616 C132.705492,160.414944 122.1217,171 109.061811,171 L106.081157,171 C93.0231122,171 82.4374755,160.417815 82.4374755,147.357616 L82.4374755,123.715232 Z"/>
      <g transform="translate(66 89)">
        <mask id="bot-2-b" fill="#fff">
          <use xlink:href="#bot-2-a"/>
        </mask>
        <use fill="#9F3631" xlink:href="#bot-2-a"/>
        <path fill="#CE3C2F" d="M-12,-1 L70,-1 L70,38.5195967 C70,60.3456673 52.3081759,78.0391935 30.4711548,78.0391935 L27.5288452,78.0391935 C5.69766683,78.0391935 -12,60.3504663 -12,38.5195967 L-12,-1 Z" mask="url(#bot-2-b)"/>
      </g>
      <g transform="translate(66.433 80.801)">
        <mask id="bot-2-d" fill="#fff">
          <use xlink:href="#bot-2-c"/>
        </mask>
        <use fill="#F06144" xlink:href="#bot-2-c"/>
        <rect width="86.287" height="81.06" x="-2.203" y="-69.96" fill="#A83F3B" mask="url(#bot-2-d)"/>
      </g>
      <g transform="translate(59.48 .536)">
        <path fill="#3B1D16" d="M0.0494763941,35.3642384 C0.0494763941,15.8331088 15.877124,0 35.4080493,0 L60.3782496,0 C79.9062502,0 95.7368225,15.8288145 95.7368225,35.3642384 L95.7368225,39.834547 C95.7368225,56.8967933 81.8997314,70.7284768 64.8515464,70.7284768 L30.9347525,70.7284768 C13.8772855,70.7284768 0.0494763941,56.902374 0.0494763941,39.834547 L0.0494763941,35.3642384 Z"/>
        <path fill="#CE3C2F" d="M4.74973383,43.5831492 C4.74973383,21.7073495 22.4715621,3.97350993 44.3575693,3.97350993 L51.4287296,3.97350993 C73.3035331,3.97350993 91.0365651,21.712278 91.0365651,43.5831492 L91.0365651,54.142252 C91.0365651,71.2028032 77.2089923,85.0331126 60.1439785,85.0331126 L35.6423204,85.0331126 C18.5808159,85.0331126 4.74973383,71.2135645 4.74973383,54.142252 L4.74973383,43.5831492 Z"/>
        <ellipse cx="21.177" cy="18.894" fill="#F06144" rx="6.168" ry="3.098" transform="rotate(-42 21.177 18.894)"/>
        <rect width="66.496" height="58.411" x="14.645" y="21.854" fill="#301615" rx="25.344"/>
        <rect width="64.054" height="56.265" x="15.866" y="22.927" fill="#3B1D16" rx="25.344"/>
        <rect width="10.291" height="12.411" x="25.332" y="42.914" fill="#FFF" rx="5.146"/>
        <rect width="10.291" height="16.291" x="15.635" y="56.225" fill="#FFEAE8" rx="5.146" transform="rotate(90 20.78 64.37)"/>
        <rect width="10.291" height="16.291" x="69.861" y="57.417" fill="#FFEAE8" rx="5.146" transform="rotate(90 75.006 65.563)"/>
        <rect width="10.291" height="12.411" x="60.163" y="42.914" fill="#FFF" rx="5.146"/>
      </g>
      <ellipse cx="106.951" cy="4.384" fill="#A83F3B" rx="3.713" ry="3"/>
      <use fill="#D8D8D8" xlink:href="#bot-2-e"/>
      <rect width="13.303" height="25.675" x="146.538" y="43.328" stroke="#979797" stroke-width=".55" rx="6.652"/>
      <path stroke="#A83F3B" stroke-width="3.564" d="M153.021103,66.0993377 L153.021103,72.6331508 C153.021103,76.2416761 150.090902,79.1669638 146.486891,79.1669638 L130.430247,79.1669638"/>
      <rect width="13.853" height="26.225" x="146.263" y="43.053" fill="#3B1D16" rx="6.927"/>
      <rect width="13.853" height="26.225" x="53.543" y="40.669" fill="#3B1D16" rx="6.927"/>
      <g transform="translate(116.875 108.616)">
        <rect width="89.058" height="62.384" x=".098" fill="#C0C0C0" rx="7.92"/>
        <circle cx="45" cy="31" r="6" fill="#FFF"/>
      </g>
      <g transform="translate(169.22 51)">
        <mask id="bot-2-g" fill="#fff">
          <use xlink:href="#bot-2-f"/>
        </mask>
        <use fill="#D1D1D1" transform="rotate(15 10.269 20.418)" xlink:href="#bot-2-f"/>
        <rect width="17.812" height="17.881" x="8.335" y="-8.719" fill="#C0C0C0" mask="url(#bot-2-g)" transform="rotate(15 17.24 .221)"/>
        <rect width="11.549" height="11.594" x="-.094" y="31.478" fill="#DDD" mask="url(#bot-2-g)" transform="rotate(15 5.68 37.275)"/>
      </g>
      <path fill="#FFF" d="M107.4732,76.0097187 C112.719611,76.0097187 116.972668,71.7401164 116.972668,66.4732949 C116.972668,61.2064734 97.9737324,61.2064734 97.9737324,66.4732949 C97.9737324,71.7401164 102.226789,76.0097187 107.4732,76.0097187 Z"/>
      <g transform="translate(172.386 58.55)">
        <rect width="6.729" height="13.741" x="14.619" y=".64" fill="#A83F3B" rx="3.364" transform="rotate(15 17.983 7.51)"/>
        <rect width="19.791" height="19.383" x="2.25" y="4.553" fill="#CE3C31" rx="8.316" transform="rotate(105 12.145 14.244)"/>
      </g>
      <g transform="matrix(-1 0 0 1 192.827 6.956)">
        <rect width="23.089" height="29.205" x="161.505" y="45.648" fill="#CE3C31" rx="8.316" transform="rotate(45 173.05 60.25)"/>
        <rect width="7.85" height="16.031" x="157.457" y="50.821" fill="#CE3C31" rx="3.925" transform="rotate(-15 161.382 58.836)"/>
        <rect width="3.925" height="13.84" x="170.453" y=".149" fill="#F06144" rx="1.963"/>
        <rect width="3.925" height="13.84" x="170.453" y=".149" fill="#F06144" rx="1.963" transform="rotate(90 172.415 7.07)"/>
        <rect width="2.203" height="6.585" x="145.412" y="98.78" fill="#F06144" rx="1.102"/>
        <rect width="2.203" height="6.585" x="145.412" y="98.78" fill="#F06144" rx="1.102" transform="rotate(90 146.513 102.073)"/>
        <rect width="2.203" height="7.683" x="3.305" y="5.488" fill="#F06144" rx="1.102"/>
        <rect width="2.203" height="7.683" x="3.305" y="5.488" fill="#F06144" rx="1.102" transform="rotate(90 4.406 9.33)"/>
      </g>
      <rect width="10.291" height="16.291" x="112.545" y="69.066" fill="#3B1D16" rx="5.146" transform="rotate(90 117.691 77.212)"/>
    </g>
  </g>
</svg>
