<svg xmlns="http://www.w3.org/2000/svg" xmlns:xlink="http://www.w3.org/1999/xlink" width="18" height="16" viewBox="0 0 18 16">
  <defs>
    <path id="r-arrow-a" d="M5.5925607,3.79999995 L1.5071582,3.79999995 C0.84441647,3.79999995 0.307158148,4.33725827 0.307158148,5 C0.307158148,5.66274173 0.84441647,6.20000005 1.5071582,6.20000005 L5.5925607,6.20000005 L5.5925607,8.69261859 C5.5925607,9.35467071 6.02208578,9.5694596 6.55193182,9.17768388 L11.3291727,5.64532391 C11.8492016,5.26080708 11.8590187,4.61835426 11.3291727,4.22657855 L6.55193182,0.694218568 C6.03190285,0.309701737 5.5925607,0.519613984 5.5925607,1.17928386 L5.5925607,3.79999995 Z"/>
  </defs>
  <g fill="none" fill-rule="evenodd" stroke-linecap="round" stroke-linejoin="round" transform="translate(3 3)">
    <use fill="#FFFFFF" xlink:href="#r-arrow-a"/>
    <path stroke="#F24B3D" stroke-width="3" d="M4.0925607,2.29999995 L4.0925607,1.17928386 C4.0925607,-0.7127832 5.9343781,-1.62792553 7.44373977,-0.511881999 L12.2209806,3.02047798 C13.5612837,4.01151719 13.5524468,5.86691939 12.2209806,6.85142447 L7.44373977,10.3837845 C5.92333867,11.5079907 4.0925607,10.5854757 4.0925607,8.69261859 L4.0925607,7.70000005 L1.5071582,7.70000005 C0.0159893453,7.70000005 -1.19284185,6.49116885 -1.19284185,5 C-1.19284185,3.50883115 0.0159893453,2.29999995 1.5071582,2.29999995 L4.0925607,2.29999995 Z"/>
  </g>
</svg>
