<svg xmlns="http://www.w3.org/2000/svg" width="289" height="677" viewBox="0 0 289 677">
  <g fill="#F06144" fill-opacity=".04" fill-rule="evenodd" transform="translate(-101 -59)">
    <path d="M112.221768,198.593268 C159.515382,137.818331 255.885294,186.961427 380.729583,160.136722 C505.573872,133.312017 595.669786,114.487336 648.78032,136.975244 C730.310373,171.496461 627.695308,271.137555 632.458834,388.329952 C637.22236,505.522348 692.663243,529.590302 655.84814,588.666442 C620.997719,644.589914 538.821691,576.28424 446.900766,581.794015 C365.358183,586.681709 306.928939,676.68777 235.817538,641.106603 C179.439253,612.897271 213.873032,540.403818 189.530431,438.556387 C165.18783,336.708956 66.5021162,257.345576 112.221768,198.593268 Z" transform="rotate(42 390.327 388.194)"/>
    <path d="M120.712007,235.240126 C176.1024,164.060376 288.97107,221.616886 435.188998,190.199728 C581.406925,158.782569 686.927473,136.735059 749.130657,163.072949 C844.618849,203.504281 724.435841,320.204167 730.014894,457.46018 C735.593947,594.716193 800.52644,622.904638 757.408504,692.094753 C716.591608,757.592456 620.346849,677.592688 512.688843,684.045751 C417.185977,689.770229 348.753508,795.185541 265.467666,753.512794 C199.437285,720.473958 239.766208,635.569453 211.256096,516.2855 C182.745985,397.001547 67.165042,304.050968 120.712007,235.240126 Z" transform="rotate(105 446.43 457.3)"/>
  </g>
</svg>
