<svg xmlns="http://www.w3.org/2000/svg" width="334" height="230" viewBox="0 0 334 230">
  <g fill="none" fill-rule="evenodd">
    <rect width="334" height="230" fill="#FFF"/>
    <path fill="#F06144" fill-opacity=".04" d="M65.3734502,58.7556627 C79.6369818,40.7807744 108.701694,55.3154117 146.354145,47.3816958 C184.006596,39.4479799 211.179099,33.8803636 227.196987,40.5314215 C251.786068,50.7414696 220.837846,80.2114722 222.274503,114.872475 C223.71116,149.533478 240.43187,156.651852 229.328608,174.124302 C218.817885,190.664314 194.033981,170.462123 166.311062,172.091702 C141.718203,173.537294 124.096218,200.157625 102.649353,189.634084 C85.6459275,181.290849 96.0309933,159.850074 88.6893794,129.727522 C81.3477655,99.6049701 51.584618,76.1323352 65.3734502,58.7556627 Z" transform="rotate(75 149.249 114.832)"/>
    <path fill="#F06144" fill-opacity=".04" d="M68.8998736,53.5874584 C83.3698161,35.3524514 103.209438,50.5348905 141.406766,42.486364 C179.604093,34.4378376 207.169817,28.7896511 223.419503,35.5369579 C248.364418,45.894758 216.968338,75.7912276 218.425785,110.953817 C219.883232,146.116407 231.486389,145.930144 220.222449,163.655441 C209.559623,180.434807 189.776588,167.347916 161.652484,169.001077 C136.703736,170.467589 118.826739,197.473148 97.069512,186.797319 C79.820026,178.333347 90.3553764,156.582298 82.9075204,126.023835 C75.4596643,95.4653731 54.9115002,71.2155926 68.8998736,53.5874584 Z" transform="rotate(30 148.61 110.913)"/>
    <g transform="translate(25 69)">
      <g transform="translate(171 39)">
        <path stroke="#979797" stroke-linecap="square" stroke-width=".64" d="M76.5021794,22.6543353 L77.4624578,23.6115607"/>
        <rect width="109.472" height="38.289" y="2.393" fill="#3B1D16" rx="6.4"/>
        <rect width="109.472" height="38.289" fill="#F06144" rx="6.4"/>
        <path fill="#FFF" d="M61.642007,16.6116525 C61.642007,17.0076012 61.6010474,17.3898906 61.519127,17.7585325 C61.4372066,18.1271743 61.2972613,18.4855707 61.099287,18.8337324 C60.9013127,19.1818942 60.641902,19.5266374 60.321047,19.8679724 C60.0001921,20.2093074 59.6076627,20.5506373 59.1434471,20.8919723 L56.2762472,23.0628522 L61.416727,23.0628522 C61.5669144,23.0628522 61.6966198,23.117465 61.805847,23.2266922 C61.9150742,23.3359194 61.969687,23.4656248 61.969687,23.6158122 L61.969687,25.7866921 C61.969687,25.9368795 61.9150742,26.0665849 61.805847,26.1758121 C61.6966198,26.2850393 61.5669144,26.3396521 61.416727,26.3396521 L50.6032875,26.3396521 C50.4531001,26.3396521 50.3233947,26.2850393 50.2141675,26.1758121 C50.1049403,26.0665849 50.0503275,25.9368795 50.0503275,25.7866921 L50.0503275,24.0254122 C50.0503275,23.8069578 50.0947004,23.5885066 50.1834475,23.3700522 C50.2721946,23.1515978 50.425793,22.9672797 50.6442475,22.8170922 L56.7677672,18.4343724 C57.2456362,18.079384 57.5460065,17.7551206 57.6688871,17.4615725 C57.7917678,17.1680244 57.8532071,16.8847205 57.8532071,16.6116525 C57.8532071,16.5160787 57.8361406,16.3829601 57.8020071,16.2122925 C57.7678736,16.041625 57.6893678,15.8709601 57.5664872,15.7002926 C57.4436065,15.5296251 57.2695283,15.3828532 57.0442472,15.2599726 C56.8189661,15.137092 56.5151824,15.0756526 56.1328872,15.0756526 C55.750592,15.0756526 55.4399818,15.1405053 55.2010473,15.2702126 C54.9621127,15.3999199 54.7777946,15.5466918 54.6480873,15.7105326 C54.51838,15.8743734 54.4228076,16.041625 54.3613673,16.2122925 C54.299927,16.3829601 54.2555541,16.5092521 54.2282473,16.5911725 C54.1599803,16.7823201 54.054168,16.9086122 53.9108073,16.9700525 C53.7674466,17.0314928 53.600195,17.0622125 53.4090473,17.0622125 L50.8900075,17.0622125 C50.7671268,17.0622125 50.6613146,17.0178396 50.5725675,16.9290925 C50.4838204,16.8403454 50.4394475,16.7345331 50.4394475,16.6116525 C50.4531009,16.0382097 50.5759796,15.4681887 50.8080875,14.9015726 C51.0401953,14.3349565 51.3917651,13.8195483 51.8628074,13.3553327 C52.3338497,12.891117 52.9209372,12.5156541 53.6240873,12.2289327 C54.3272375,11.9422113 55.1566691,11.7988527 56.1124072,11.7988527 C57.0135317,11.7988527 57.8088304,11.9319714 58.4983271,12.1982127 C59.1878239,12.464454 59.7646714,12.8194371 60.228887,13.2631727 C60.6931027,13.7069082 61.0446725,14.2189031 61.283607,14.7991726 C61.5225415,15.3794421 61.642007,15.9835961 61.642007,16.6116525 Z M68.1078352,22.0798123 C68.203409,22.2026929 68.3092213,22.3323983 68.4252752,22.4689323 C68.5413291,22.6054663 68.6812744,22.7317583 68.8451152,22.8478122 C69.008956,22.9638662 69.2069273,23.0628518 69.4390351,23.1447722 C69.671143,23.2266926 69.9442069,23.2676522 70.2582351,23.2676522 C70.5449565,23.2676522 70.8180205,23.2301059 71.0774351,23.1550122 C71.3368497,23.0799185 71.568954,22.9672797 71.773755,22.8170922 C71.9785561,22.6669048 72.1389811,22.4825867 72.255035,22.2641323 C72.3710889,22.0456779 72.429115,21.7862671 72.429115,21.4858923 C72.429115,21.0216767 72.2482102,20.6428005 71.886395,20.3492524 C71.5245799,20.0557042 71.0296515,19.9089324 70.4015951,19.9089324 C70.2104475,19.9089324 70.0295426,19.9362388 69.8588751,19.9908524 C69.6882076,20.045466 69.5311959,20.1034921 69.3878351,20.1649324 C69.2444744,20.2263727 69.1113558,20.2843988 68.9884752,20.3390124 C68.8655946,20.393626 68.7631956,20.4209324 68.6812752,20.4209324 L65.4863953,20.4209324 C65.3225545,20.4209324 65.1860225,20.3663196 65.0767953,20.2570924 C64.9675681,20.1478652 64.9197819,20.0181598 64.9334353,19.8679724 L65.5478353,12.5566127 C65.5614887,12.4064253 65.6195148,12.2767199 65.7219153,12.1674927 C65.8243158,12.0582655 65.9506079,12.0036527 66.1007953,12.0036527 L74.8662349,12.0036527 C75.0164223,12.0036527 75.1461277,12.0582655 75.2553549,12.1674927 C75.3645821,12.2767199 75.4191949,12.4064253 75.4191949,12.5566127 L75.4191949,14.7274926 C75.4191949,14.87768 75.3645821,15.0073854 75.2553549,15.1166126 C75.1461277,15.2258398 75.0164223,15.2804526 74.8662349,15.2804526 L68.9065552,15.2804526 L68.7631952,17.1031725 C69.0089564,16.9666385 69.2922602,16.8539996 69.6131151,16.7652525 C69.9339701,16.6765054 70.2855399,16.6321325 70.6678351,16.6321325 C71.4597323,16.6321325 72.1935916,16.7413581 72.869435,16.9598125 C73.5452783,17.1782669 74.1323658,17.4922904 74.6307149,17.9018925 C75.129064,18.3114945 75.5181801,18.8166628 75.7980749,19.4174124 C76.0779696,20.018162 76.2179148,20.7076485 76.2179148,21.4858923 C76.2179148,22.3050964 76.0643164,23.0287158 75.7571149,23.6567722 C75.4499133,24.2848287 75.0266643,24.81389 74.4873549,25.2439721 C73.9480456,25.6740543 73.3165853,25.9983177 72.592955,26.2167721 C71.8693248,26.4352265 71.0910926,26.5444521 70.2582351,26.5444521 C69.3298038,26.5444521 68.5003722,26.4249866 67.7699152,26.1860521 C67.0394583,25.9471176 66.4216511,25.6262675 65.9164753,25.2234921 C65.4112995,24.8207168 65.0221834,24.3565081 64.7491154,23.8308522 C64.4760473,23.3051963 64.3326888,22.7624817 64.3190354,22.2026923 C64.3190354,22.0798117 64.3634083,21.9739994 64.4521554,21.8852523 C64.5409025,21.7965052 64.6467147,21.7521323 64.7695954,21.7521323 L67.3705552,21.7521323 C67.5890097,21.7521323 67.7562613,21.7930919 67.8723152,21.8750123 C67.9883691,21.9569327 68.066875,22.0251987 68.1078352,22.0798123 Z M84.854623,14.8094126 C84.8955832,15.3555486 84.8955832,15.8743701 84.854623,16.3658925 C84.8273162,16.7754946 84.7488103,17.1543708 84.619103,17.5025325 C84.4893957,17.8506942 84.2914243,18.1578911 84.025183,18.4241324 C83.7589417,18.6903738 83.4278517,18.898585 83.0319031,19.0487724 C82.6359544,19.1989598 82.1717458,19.2740524 81.6392631,19.2740524 C81.1067805,19.2740524 80.6425718,19.1989598 80.2466232,19.0487724 C79.8506746,18.898585 79.5229978,18.6903738 79.2635832,18.4241324 C79.0041686,18.1578911 78.8061973,17.8506942 78.6696633,17.5025325 C78.5331292,17.1543708 78.4512101,16.7754946 78.4239033,16.3658925 C78.3965965,16.0928245 78.3829433,15.8368271 78.3829433,15.5978926 C78.3829433,15.3589581 78.3965965,15.096134 78.4239033,14.8094126 C78.4512101,14.3998106 78.5331292,14.0209344 78.6696633,13.6727727 C78.8061973,13.3246109 79.0041686,13.017414 79.2635832,12.7511727 C79.5229978,12.4849314 79.8506746,12.2767201 80.2466232,12.1265327 C80.6425718,11.9763453 81.1067805,11.9012527 81.6392631,11.9012527 C82.1717458,11.9012527 82.6359544,11.9763453 83.0319031,12.1265327 C83.4278517,12.2767201 83.7555284,12.4849314 84.014943,12.7511727 C84.2743576,13.017414 84.472329,13.3246109 84.608863,13.6727727 C84.745397,14.0209344 84.8273162,14.3998106 84.854623,14.8094126 Z M80.7995832,16.2634925 C80.82689,16.618481 80.8985692,16.8847183 81.0146232,17.0622125 C81.1306771,17.2397067 81.3388883,17.3284525 81.6392631,17.3284525 C81.9396379,17.3284525 82.1478492,17.2397067 82.2639031,17.0622125 C82.379957,16.8847183 82.4516363,16.618481 82.4789431,16.2634925 C82.5199033,15.8129303 82.5199033,15.3623748 82.4789431,14.9118126 C82.4516363,14.5568242 82.379957,14.2905869 82.2639031,14.1130926 C82.1478492,13.9355984 81.9396379,13.8468527 81.6392631,13.8468527 C81.3388883,13.8468527 81.1306771,13.9355984 81.0146232,14.1130926 C80.8985692,14.2905869 80.82689,14.5568242 80.7995832,14.9118126 C80.758623,15.3623748 80.758623,15.8129303 80.7995832,16.2634925 Z M94.3573426,21.9774123 C94.3983028,22.5235483 94.3983028,23.0423698 94.3573426,23.5338922 C94.3300358,23.9434942 94.2515299,24.3223704 94.1218226,24.6705322 C93.9921153,25.0186939 93.7941439,25.3258908 93.5279026,25.5921321 C93.2616613,25.8583734 92.9305713,26.0665847 92.5346226,26.2167721 C92.138674,26.3669595 91.6744653,26.4420521 91.1419827,26.4420521 C90.6095001,26.4420521 90.1452914,26.3669595 89.7493428,26.2167721 C89.3533941,26.0665847 89.0257174,25.8583734 88.7663028,25.5921321 C88.5068882,25.3258908 88.3089168,25.0186939 88.1723828,24.6705322 C88.0358488,24.3223704 87.9539296,23.9434942 87.9266228,23.5338922 C87.899316,23.2608242 87.8856628,23.0048268 87.8856628,22.7658923 C87.8856628,22.5269577 87.899316,22.2641337 87.9266228,21.9774123 C87.9539296,21.5678103 88.0358488,21.1889341 88.1723828,20.8407723 C88.3089168,20.4926106 88.5068882,20.1854137 88.7663028,19.9191724 C89.0257174,19.6529311 89.3533941,19.4447198 89.7493428,19.2945324 C90.1452914,19.144345 90.6095001,19.0692524 91.1419827,19.0692524 C91.6744653,19.0692524 92.138674,19.144345 92.5346226,19.2945324 C92.9305713,19.4447198 93.258248,19.6529311 93.5176626,19.9191724 C93.7770772,20.1854137 93.9750486,20.4926106 94.1115826,20.8407723 C94.2481166,21.1889341 94.3300358,21.5678103 94.3573426,21.9774123 Z M90.3023027,23.4314922 C90.3296095,23.7864806 90.4012888,24.052718 90.5173427,24.2302122 C90.6333966,24.4077064 90.8416079,24.4964522 91.1419827,24.4964522 C91.4423575,24.4964522 91.6505688,24.4077064 91.7666227,24.2302122 C91.8826766,24.052718 91.9543559,23.7864806 91.9816627,23.4314922 C92.0226229,22.98093 92.0226229,22.5303745 91.9816627,22.0798123 C91.9543559,21.7248239 91.8826766,21.4585865 91.7666227,21.2810923 C91.6505688,21.1035981 91.4423575,21.0148523 91.1419827,21.0148523 C90.8416079,21.0148523 90.6333966,21.1035981 90.5173427,21.2810923 C90.4012888,21.4585865 90.3296095,21.7248239 90.3023027,22.0798123 C90.2613425,22.5303745 90.2613425,22.98093 90.3023027,23.4314922 Z M89.9746228,12.3927727 C90.0701966,12.2698921 90.1691822,12.1743197 90.2715827,12.1060527 C90.3739832,12.0377857 90.5207551,12.0036527 90.7119027,12.0036527 L92.3912626,12.0036527 C92.5414501,12.0036527 92.6609155,12.041199 92.7496626,12.1162927 C92.8384097,12.1913864 92.8827826,12.2903721 92.8827826,12.4132527 C92.8827826,12.4405595 92.875956,12.4746925 92.8623026,12.5156527 C92.8486492,12.5566129 92.8281694,12.5975725 92.8008626,12.6385327 L82.6837431,25.9505321 C82.5881693,26.0734127 82.4891836,26.1689851 82.3867831,26.2372521 C82.2843826,26.3055191 82.1376107,26.3396521 81.9464631,26.3396521 L80.2671032,26.3396521 C80.1169158,26.3396521 79.9974503,26.3021058 79.9087032,26.2270121 C79.8199561,26.1519184 79.7755832,26.0529327 79.7755832,25.9300521 C79.7755832,25.9027453 79.7824098,25.8686123 79.7960632,25.8276521 C79.8097166,25.7866919 79.8301964,25.7457323 79.8575032,25.7047721 L89.9746228,12.3927727 Z"/>
        <ellipse cx="25.607" cy="19.145" fill="#CE3C2F" rx="10.883" ry="10.849"/>
        <path fill="#A83F3B" d="M25.6074241,29.9930636 C31.6180247,29.9930636 36.4905793,25.1360001 36.4905793,19.1445087 L25.6074241,19.1445087 L25.6074241,29.9930636 Z"/>
      </g>
      <g transform="translate(0 97)">
        <rect width="106.275" height="38.289" y="2.393" fill="#3B1D16" rx="6.4"/>
        <rect width="106.275" height="38.289" fill="#F06144" rx="6.4"/>
        <path fill="#FFF" d="M49.0423975,16.6116525 C48.9468237,16.4887719 48.9126907,16.35224 48.9399975,16.2020525 C48.9673043,16.0518651 49.0423969,15.9289864 49.1652775,15.8334126 L53.5684773,12.4542127 C53.6777045,12.3722923 53.8108231,12.2767199 53.9678373,12.1674927 C54.1248514,12.0582655 54.3057562,12.0036527 54.5105572,12.0036527 L57.0091171,12.0036527 C57.1593045,12.0036527 57.2890099,12.0582655 57.3982371,12.1674927 C57.5074643,12.2767199 57.5620771,12.4064253 57.5620771,12.5566127 L57.5620771,25.7866921 C57.5620771,25.9368795 57.5074643,26.0665849 57.3982371,26.1758121 C57.2890099,26.2850393 57.1593045,26.3396521 57.0091171,26.3396521 L54.3262372,26.3396521 C54.1760498,26.3396521 54.0463445,26.2850393 53.9371173,26.1758121 C53.8278901,26.0665849 53.7732773,25.9368795 53.7732773,25.7866921 L53.7732773,16.8369325 L51.3361574,18.6801324 C51.2132768,18.7757062 51.0767448,18.8132525 50.9265574,18.7927724 C50.77637,18.7722923 50.6534912,18.700613 50.5579174,18.5777324 L49.0423975,16.6116525 Z M72.056065,16.6116525 C72.056065,17.0076012 72.0151054,17.3898906 71.933185,17.7585325 C71.8512646,18.1271743 71.7113193,18.4855707 71.513345,18.8337324 C71.3153707,19.1818942 71.05596,19.5266374 70.735105,19.8679724 C70.4142501,20.2093074 70.0217207,20.5506373 69.5575051,20.8919723 L66.6903052,23.0628522 L71.830785,23.0628522 C71.9809724,23.0628522 72.1106778,23.117465 72.219905,23.2266922 C72.3291322,23.3359194 72.383745,23.4656248 72.383745,23.6158122 L72.383745,25.7866921 C72.383745,25.9368795 72.3291322,26.0665849 72.219905,26.1758121 C72.1106778,26.2850393 71.9809724,26.3396521 71.830785,26.3396521 L61.0173455,26.3396521 C60.8671581,26.3396521 60.7374527,26.2850393 60.6282255,26.1758121 C60.5189983,26.0665849 60.4643855,25.9368795 60.4643855,25.7866921 L60.4643855,24.0254122 C60.4643855,23.8069578 60.5087584,23.5885066 60.5975055,23.3700522 C60.6862526,23.1515978 60.839851,22.9672797 61.0583055,22.8170922 L67.1818252,18.4343724 C67.6596942,18.079384 67.9600645,17.7551206 68.0829451,17.4615725 C68.2058258,17.1680244 68.2672651,16.8847205 68.2672651,16.6116525 C68.2672651,16.5160787 68.2501986,16.3829601 68.2160651,16.2122925 C68.1819316,16.041625 68.1034258,15.8709601 67.9805452,15.7002926 C67.8576645,15.5296251 67.6835863,15.3828532 67.4583052,15.2599726 C67.2330241,15.137092 66.9292404,15.0756526 66.5469452,15.0756526 C66.16465,15.0756526 65.8540398,15.1405053 65.6151053,15.2702126 C65.3761707,15.3999199 65.1918526,15.5466918 65.0621453,15.7105326 C64.932438,15.8743734 64.8368656,16.041625 64.7754253,16.2122925 C64.713985,16.3829601 64.6696121,16.5092521 64.6423053,16.5911725 C64.5740383,16.7823201 64.468226,16.9086122 64.3248653,16.9700525 C64.1815046,17.0314928 64.014253,17.0622125 63.8231053,17.0622125 L61.3040655,17.0622125 C61.1811848,17.0622125 61.0753726,17.0178396 60.9866255,16.9290925 C60.8978784,16.8403454 60.8535055,16.7345331 60.8535055,16.6116525 C60.8671589,16.0382097 60.9900376,15.4681887 61.2221455,14.9015726 C61.4542533,14.3349565 61.8058231,13.8195483 62.2768654,13.3553327 C62.7479077,12.891117 63.3349952,12.5156541 64.0381453,12.2289327 C64.7412955,11.9422113 65.5707271,11.7988527 66.5264652,11.7988527 C67.4275897,11.7988527 68.2228884,11.9319714 68.9123851,12.1982127 C69.6018819,12.464454 70.1787294,12.8194371 70.642945,13.2631727 C71.1071607,13.7069082 71.4587305,14.2189031 71.697665,14.7991726 C71.9365995,15.3794421 72.056065,15.9835961 72.056065,16.6116525 Z M86.4271729,16.6116525 C86.4271729,17.0076012 86.3862133,17.3898906 86.3042929,17.7585325 C86.2223725,18.1271743 86.0824272,18.4855707 85.8844529,18.8337324 C85.6864786,19.1818942 85.4270678,19.5266374 85.1062129,19.8679724 C84.785358,20.2093074 84.3928286,20.5506373 83.928613,20.8919723 L81.0614131,23.0628522 L86.2018929,23.0628522 C86.3520803,23.0628522 86.4817856,23.117465 86.5910128,23.2266922 C86.7002401,23.3359194 86.7548528,23.4656248 86.7548528,23.6158122 L86.7548528,25.7866921 C86.7548528,25.9368795 86.7002401,26.0665849 86.5910128,26.1758121 C86.4817856,26.2850393 86.3520803,26.3396521 86.2018929,26.3396521 L75.3884533,26.3396521 C75.2382659,26.3396521 75.1085606,26.2850393 74.9993334,26.1758121 C74.8901062,26.0665849 74.8354934,25.9368795 74.8354934,25.7866921 L74.8354934,24.0254122 C74.8354934,23.8069578 74.8798663,23.5885066 74.9686134,23.3700522 C75.0573605,23.1515978 75.2109589,22.9672797 75.4294133,22.8170922 L81.5529331,18.4343724 C82.0308021,18.079384 82.3311724,17.7551206 82.454053,17.4615725 C82.5769336,17.1680244 82.638373,16.8847205 82.638373,16.6116525 C82.638373,16.5160787 82.6213065,16.3829601 82.587173,16.2122925 C82.5530395,16.041625 82.4745336,15.8709601 82.351653,15.7002926 C82.2287724,15.5296251 82.0546942,15.3828532 81.8294131,15.2599726 C81.6041319,15.137092 81.3003483,15.0756526 80.9180531,15.0756526 C80.5357579,15.0756526 80.2251477,15.1405053 79.9862131,15.2702126 C79.7472786,15.3999199 79.5629605,15.5466918 79.4332532,15.7105326 C79.3035459,15.8743734 79.2079735,16.041625 79.1465332,16.2122925 C79.0850929,16.3829601 79.04072,16.5092521 79.0134132,16.5911725 C78.9451462,16.7823201 78.8393339,16.9086122 78.6959732,16.9700525 C78.5526125,17.0314928 78.3853608,17.0622125 78.1942132,17.0622125 L75.6751733,17.0622125 C75.5522927,17.0622125 75.4464805,17.0178396 75.3577333,16.9290925 C75.2689862,16.8403454 75.2246134,16.7345331 75.2246134,16.6116525 C75.2382668,16.0382097 75.3611455,15.4681887 75.5932533,14.9015726 C75.8253612,14.3349565 76.176931,13.8195483 76.6479733,13.3553327 C77.1190156,12.891117 77.7061031,12.5156541 78.4092532,12.2289327 C79.1124034,11.9422113 79.941835,11.7988527 80.8975731,11.7988527 C81.7986976,11.7988527 82.5939962,11.9319714 83.283493,12.1982127 C83.9729897,12.464454 84.5498373,12.8194371 85.0140529,13.2631727 C85.4782685,13.7069082 85.8298384,14.2189031 86.0687729,14.7991726 C86.3077074,15.3794421 86.4271729,15.9835961 86.4271729,16.6116525 Z"/>
        <rect width="3.841" height="9.572" x="14.724" y="20.253" fill="#CE3C2F" rx=".64"/>
        <rect width="3.841" height="16.425" x="22.406" y="13.401" fill="#CE3C2F" rx=".64"/>
        <rect width="3.841" height="20.421" x="30.089" y="9.405" fill="#CE3C2F" rx=".64"/>
      </g>
      <g transform="translate(38)">
        <path stroke="#979797" stroke-linecap="square" stroke-width=".64" d="M76.5021794,22.6543353 L77.4624578,23.6115607"/>
        <rect width="109.472" height="38.289" y="2.393" fill="#3B1D16" rx="6.4"/>
        <rect width="109.472" height="38.289" fill="#F06144" rx="6.4"/>
        <path fill="#FFF" d="M48.5205288,16.6116525 C48.424955,16.4887719 48.390822,16.35224 48.4181288,16.2020525 C48.4454356,16.0518651 48.5205281,15.9289864 48.6434088,15.8334126 L53.0466086,12.4542127 C53.1558358,12.3722923 53.2889544,12.2767199 53.4459685,12.1674927 C53.6029827,12.0582655 53.7838875,12.0036527 53.9886885,12.0036527 L56.4872484,12.0036527 C56.6374358,12.0036527 56.7671412,12.0582655 56.8763684,12.1674927 C56.9855956,12.2767199 57.0402084,12.4064253 57.0402084,12.5566127 L57.0402084,25.7866921 C57.0402084,25.9368795 56.9855956,26.0665849 56.8763684,26.1758121 C56.7671412,26.2850393 56.6374358,26.3396521 56.4872484,26.3396521 L53.8043685,26.3396521 C53.6541811,26.3396521 53.5244758,26.2850393 53.4152485,26.1758121 C53.3060213,26.0665849 53.2514085,25.9368795 53.2514085,25.7866921 L53.2514085,16.8369325 L50.8142887,18.6801324 C50.691408,18.7757062 50.5548761,18.8132525 50.4046887,18.7927724 C50.2545013,18.7722923 50.1316225,18.700613 50.0360487,18.5777324 L48.5205288,16.6116525 Z M72.0666762,21.4039723 C72.0666762,22.209523 71.9028379,22.9297291 71.5751563,23.5646122 C71.2474746,24.1994954 70.8037458,24.7353833 70.2439563,25.1722921 C69.6841669,25.609201 69.0356401,25.9471176 68.2983564,26.1860521 C67.5610727,26.4249866 66.7828406,26.5444521 65.9636365,26.5444521 C65.1444324,26.5444521 64.3662003,26.4249866 63.6289166,26.1860521 C62.891633,25.9471176 62.2396928,25.609201 61.6730767,25.1722921 C61.1064606,24.7353833 60.6593184,24.1994954 60.3316368,23.5646122 C60.0039551,22.9297291 59.8401168,22.209523 59.8401168,21.4039723 C59.8401168,20.9807169 59.8913163,20.5950141 59.9937168,20.2468524 C60.0961173,19.8986906 60.2224093,19.5744272 60.3725968,19.2740524 C60.5227842,18.9736776 60.6866225,18.6937871 60.8641167,18.4343724 C61.0416109,18.1749578 61.2122759,17.9292003 61.3761167,17.6970925 L65.2877965,12.4132527 C65.3560635,12.3449857 65.4311561,12.2596532 65.5130765,12.1572527 C65.5949969,12.0548522 65.7315289,12.0036527 65.9226765,12.0036527 L69.1789964,12.0036527 C69.301877,12.0036527 69.4008626,12.0480256 69.4759563,12.1367727 C69.5510501,12.2255198 69.5885963,12.3313321 69.5885963,12.4542127 C69.5885963,12.5224797 69.5783564,12.5770925 69.5578763,12.6180527 C69.5373962,12.6590129 69.5135031,12.6931459 69.4861963,12.7204527 L66.8237965,16.3249325 C67.5474267,16.4068529 68.2266732,16.5809312 68.8615564,16.8471725 C69.4964395,17.1134138 70.0528073,17.4615703 70.5306763,17.8916525 C71.0085453,18.3217346 71.3840082,18.8337295 71.6570763,19.4276524 C71.9301443,20.0215753 72.0666762,20.6803421 72.0666762,21.4039723 Z M63.6289166,21.4039723 C63.6289166,21.7043471 63.6971826,21.9705845 63.8337166,22.2026923 C63.9702506,22.4348001 64.1477422,22.6293581 64.3661966,22.7863723 C64.584651,22.9433864 64.8338218,23.0628518 65.1137165,23.1447722 C65.3936113,23.2266926 65.6769151,23.2676522 65.9636365,23.2676522 C66.2503579,23.2676522 66.5336617,23.2266926 66.8135565,23.1447722 C67.0934512,23.0628518 67.3392087,22.9433864 67.5508364,22.7863723 C67.7624641,22.6293581 67.9365424,22.4348001 68.0730764,22.2026923 C68.2096104,21.9705845 68.2778764,21.7043471 68.2778764,21.4039723 C68.2778764,21.1035975 68.2096104,20.8373602 68.0730764,20.6052523 C67.9365424,20.3731445 67.7624641,20.1785865 67.5508364,20.0215724 C67.3392087,19.8645583 67.0934512,19.7450928 66.8135565,19.6631724 C66.5336617,19.581252 66.2503579,19.5402924 65.9636365,19.5402924 C65.6769151,19.5402924 65.3936113,19.581252 65.1137165,19.6631724 C64.8338218,19.7450928 64.584651,19.8645583 64.3661966,20.0215724 C64.1477422,20.1785865 63.9702506,20.3731445 63.8337166,20.6052523 C63.6971826,20.8373602 63.6289166,21.1035975 63.6289166,21.4039723 Z M80.5190644,14.8094126 C80.5600246,15.3555486 80.5600246,15.8743701 80.5190644,16.3658925 C80.4917576,16.7754946 80.4132517,17.1543708 80.2835444,17.5025325 C80.1538371,17.8506942 79.9558657,18.1578911 79.6896244,18.4241324 C79.4233831,18.6903738 79.0922931,18.898585 78.6963445,19.0487724 C78.3003958,19.1989598 77.8361872,19.2740524 77.3037045,19.2740524 C76.7712219,19.2740524 76.3070132,19.1989598 75.9110646,19.0487724 C75.515116,18.898585 75.1874392,18.6903738 74.9280246,18.4241324 C74.66861,18.1578911 74.4706387,17.8506942 74.3341047,17.5025325 C74.1975706,17.1543708 74.1156515,16.7754946 74.0883447,16.3658925 C74.0610379,16.0928245 74.0473847,15.8368271 74.0473847,15.5978926 C74.0473847,15.3589581 74.0610379,15.096134 74.0883447,14.8094126 C74.1156515,14.3998106 74.1975706,14.0209344 74.3341047,13.6727727 C74.4706387,13.3246109 74.66861,13.017414 74.9280246,12.7511727 C75.1874392,12.4849314 75.515116,12.2767201 75.9110646,12.1265327 C76.3070132,11.9763453 76.7712219,11.9012527 77.3037045,11.9012527 C77.8361872,11.9012527 78.3003958,11.9763453 78.6963445,12.1265327 C79.0922931,12.2767201 79.4199698,12.4849314 79.6793844,12.7511727 C79.938799,13.017414 80.1367704,13.3246109 80.2733044,13.6727727 C80.4098384,14.0209344 80.4917576,14.3998106 80.5190644,14.8094126 Z M76.4640246,16.2634925 C76.4913314,16.618481 76.5630106,16.8847183 76.6790645,17.0622125 C76.7951185,17.2397067 77.0033297,17.3284525 77.3037045,17.3284525 C77.6040793,17.3284525 77.8122906,17.2397067 77.9283445,17.0622125 C78.0443984,16.8847183 78.1160777,16.618481 78.1433845,16.2634925 C78.1843447,15.8129303 78.1843447,15.3623748 78.1433845,14.9118126 C78.1160777,14.5568242 78.0443984,14.2905869 77.9283445,14.1130926 C77.8122906,13.9355984 77.6040793,13.8468527 77.3037045,13.8468527 C77.0033297,13.8468527 76.7951185,13.9355984 76.6790645,14.1130926 C76.5630106,14.2905869 76.4913314,14.5568242 76.4640246,14.9118126 C76.4230644,15.3623748 76.4230644,15.8129303 76.4640246,16.2634925 Z M90.021784,21.9774123 C90.0627442,22.5235483 90.0627442,23.0423698 90.021784,23.5338922 C89.9944772,23.9434942 89.9159713,24.3223704 89.786264,24.6705322 C89.6565567,25.0186939 89.4585853,25.3258908 89.192344,25.5921321 C88.9261027,25.8583734 88.5950127,26.0665847 88.199064,26.2167721 C87.8031154,26.3669595 87.3389067,26.4420521 86.8064241,26.4420521 C86.2739415,26.4420521 85.8097328,26.3669595 85.4137842,26.2167721 C85.0178355,26.0665847 84.6901588,25.8583734 84.4307442,25.5921321 C84.1713296,25.3258908 83.9733582,25.0186939 83.8368242,24.6705322 C83.7002902,24.3223704 83.618371,23.9434942 83.5910642,23.5338922 C83.5637574,23.2608242 83.5501042,23.0048268 83.5501042,22.7658923 C83.5501042,22.5269577 83.5637574,22.2641337 83.5910642,21.9774123 C83.618371,21.5678103 83.7002902,21.1889341 83.8368242,20.8407723 C83.9733582,20.4926106 84.1713296,20.1854137 84.4307442,19.9191724 C84.6901588,19.6529311 85.0178355,19.4447198 85.4137842,19.2945324 C85.8097328,19.144345 86.2739415,19.0692524 86.8064241,19.0692524 C87.3389067,19.0692524 87.8031154,19.144345 88.199064,19.2945324 C88.5950127,19.4447198 88.9226894,19.6529311 89.182104,19.9191724 C89.4415186,20.1854137 89.63949,20.4926106 89.776024,20.8407723 C89.912558,21.1889341 89.9944772,21.5678103 90.021784,21.9774123 Z M85.9667441,23.4314922 C85.9940509,23.7864806 86.0657302,24.052718 86.1817841,24.2302122 C86.297838,24.4077064 86.5060493,24.4964522 86.8064241,24.4964522 C87.1067989,24.4964522 87.3150102,24.4077064 87.4310641,24.2302122 C87.547118,24.052718 87.6187973,23.7864806 87.6461041,23.4314922 C87.6870643,22.98093 87.6870643,22.5303745 87.6461041,22.0798123 C87.6187973,21.7248239 87.547118,21.4585865 87.4310641,21.2810923 C87.3150102,21.1035981 87.1067989,21.0148523 86.8064241,21.0148523 C86.5060493,21.0148523 86.297838,21.1035981 86.1817841,21.2810923 C86.0657302,21.4585865 85.9940509,21.7248239 85.9667441,22.0798123 C85.9257839,22.5303745 85.9257839,22.98093 85.9667441,23.4314922 Z M85.6390641,12.3927727 C85.734638,12.2698921 85.8336236,12.1743197 85.9360241,12.1060527 C86.0384246,12.0377857 86.1851965,12.0036527 86.3763441,12.0036527 L88.055704,12.0036527 C88.2058915,12.0036527 88.3253569,12.041199 88.414104,12.1162927 C88.5028511,12.1913864 88.547224,12.2903721 88.547224,12.4132527 C88.547224,12.4405595 88.5403974,12.4746925 88.526744,12.5156527 C88.5130906,12.5566129 88.4926108,12.5975725 88.465304,12.6385327 L78.3481845,25.9505321 C78.2526107,26.0734127 78.153625,26.1689851 78.0512245,26.2372521 C77.948824,26.3055191 77.8020521,26.3396521 77.6109045,26.3396521 L75.9315446,26.3396521 C75.7813572,26.3396521 75.6618917,26.3021058 75.5731446,26.2270121 C75.4843975,26.1519184 75.4400246,26.0529327 75.4400246,25.9300521 C75.4400246,25.9027453 75.4468512,25.8686123 75.4605046,25.8276521 C75.474158,25.7866919 75.4946378,25.7457323 75.5219446,25.7047721 L85.6390641,12.3927727 Z"/>
        <g fill="#CE3C2F" stroke="#CE3C2F" stroke-linecap="round" stroke-linejoin="round" stroke-width="3.2" transform="translate(10.243 11.487)">
          <path d="M8.00232002 11.1676301L13.453304 5.73397614M17.6115083 9.88495543L13.4502969 5.73697365M17.511283 9.78504885L26.9421854.384129743M8.00232002 11.1676301L.320092801 11.1676301"/>
        </g>
      </g>
    </g>
  </g>
</svg>
