<svg xmlns="http://www.w3.org/2000/svg" width="29" height="29" viewBox="0 0 29 29">
  <path fill="#000000" fill-rule="evenodd" d="M17.8988,0 L11.10265,0 C4.9706,0 0,4.72809526 0,10.8376267 C0,16.9471581 4.9706,21.6752534 11.10265,21.6752534 L17.26515,21.6752534 L23.03325,27.7977899 C25.58235,30.3381296 29,28.4755028 29,25.7068505 L29,11.3592778 C29,5.24830134 23.9917,0 17.8611,0 L17.8988,0 Z M17.6494,3.0374255 C22.17195,3.0374255 26.1,6.85227009 26.1,11.3592778 L26.1,25.7068505 C26.1,26.2357267 25.4678,26.5102799 25.08355,26.1273504 C18.4411,19.077113 19.56485,20.364623 18.46575,18.7852196 L11.10265,18.7852196 C6.5801,18.7852196 2.9,15.3446344 2.9,10.8376267 C2.9,6.330619 6.5801,2.89003378 11.10265,2.89003378 L17.4,2.89003378 L17.6494,3.0374255 Z"/>
</svg>
