<svg xmlns="http://www.w3.org/2000/svg" width="29" height="29" viewBox="0 0 29 29">
  <path fill="#000000" fill-rule="evenodd" d="M26.1,5.8 L26.1,0 L23.2,0 L23.2,5.8 L20.3,5.8 L20.3,8.7 L23.2,8.7 L23.2,29 L26.1,29 L26.1,8.7 L29,8.7 L29,5.8 L26.1,5.8 Z M15.95,0 L13.05,0 L13.05,13.05 L10.15,13.05 L10.15,15.95 L13.05,15.95 L13.05,29 L15.95,29 L15.95,15.95 L18.85,15.95 L18.85,13.05 L15.95,13.05 L15.95,0 Z M5.8,20.3 L8.7,20.3 L8.7,23.2 L5.8,23.2 L5.8,29 L2.9,29 L2.9,23.2 L0,23.2 L0,20.3 L2.9,20.3 L2.9,0 L5.8,0 L5.8,20.3 Z"/>
</svg>
