<svg xmlns="http://www.w3.org/2000/svg" width="29" height="29" viewBox="0 0 29 29">
  <path fill="#333333" fill-rule="evenodd" d="M8.7,21.75 C8.7,20.9496 8.0504,20.3 7.25,20.3 L4.35,20.3 C3.5496,20.3 2.9,20.9496 2.9,21.75 L2.9,24.65 C2.9,25.4504 3.5496,26.1 4.35,26.1 L7.25,26.1 C8.0504,26.1 8.7,25.4504 8.7,24.65 L8.7,21.75 Z M11.6,20.3 L11.6,26.1 C11.6,27.70225 10.30225,29 8.7,29 L2.9,29 C1.29775,29 0,27.70225 0,26.1 L0,20.3 C0,18.69775 1.29775,17.4 2.9,17.4 L8.7,17.4 C10.30225,17.4 11.6,18.69775 11.6,20.3 L11.6,20.3 Z M26.1,4.35 C26.1,3.5496 25.4504,2.9 24.65,2.9 L21.75,2.9 C20.9496,2.9 20.3,3.5496 20.3,4.35 L20.3,7.25 C20.3,8.0504 20.9496,8.7 21.75,8.7 L24.65,8.7 C25.4504,8.7 26.1,8.0504 26.1,7.25 L26.1,4.35 Z M29,2.9 L29,8.7 C29,10.30225 27.70225,11.6 26.1,11.6 L20.3,11.6 C18.69775,11.6 17.4,10.30225 17.4,8.7 L17.4,2.9 C17.4,1.29775 18.69775,0 20.3,0 L26.1,0 C27.70225,0 29,1.29775 29,2.9 L29,2.9 Z M24.65,14.5 L21.75,14.5 C20.9496,14.5 20.3,15.14235 20.3,15.94275 C20.3,16.74315 20.9496,17.3855 21.75,17.3855 L21.75,20.2855 C21.75,21.08735 21.1004,21.75 20.3,21.75 L17.4,21.75 C17.4,20.3 16.7504,20.29275 15.95,20.29275 C15.1496,20.29275 14.5,20.9351 14.5,21.7355 L14.5,24.6355 C14.5,25.43735 15.1496,26.09275 15.95,26.09275 C16.7504,26.09275 17.4,26.1 17.4,24.65 L21.75,24.65 C23.35225,24.65 24.65,23.33775 24.65,21.7355 L24.65,17.3855 C25.4504,17.3855 26.1,16.74315 26.1,15.94275 C26.1,15.14235 25.4504,14.5 24.65,14.5 L24.65,14.5 Z M14.5,7.25 C14.5,8.0504 13.8504,8.7 13.05,8.7 C12.2496,8.7 11.6,8.0504 11.6,7.25 L8.7,7.25 C7.8996,7.25 7.25,7.8996 7.25,8.7 L7.25,11.6 C8.0504,11.6 8.7,12.2496 8.7,13.05 C8.7,13.8504 8.0504,14.5 7.25,14.5 L4.35,14.5 C3.5496,14.5 2.9,13.8504 2.9,13.05 C2.9,12.2496 3.5496,11.6 4.35,11.6 L4.35,7.25 C4.35,5.64775 5.64775,4.35 7.25,4.35 L11.6,4.35 C11.6,3.5496 12.2496,2.9 13.05,2.9 C13.8504,2.9 14.5,3.5496 14.5,4.35 L14.5,7.25 Z"/>
</svg>
