<svg xmlns="http://www.w3.org/2000/svg" width="521" height="513" viewBox="0 0 521 513">
  <g fill="#F06144" fill-opacity=".04" fill-rule="evenodd" transform="translate(-93 -48)">
    <path d="M83.8979382,144.97953 C123.029314,94.693525 209.564376,186.998053 312.86223,164.802929 C416.160083,142.607805 483.909367,75.3891442 527.853742,93.9959429 C595.312811,122.559265 492.963063,207.113861 496.904469,304.080435 C500.845875,401.04701 564.163066,418.850953 533.701752,467.73135 C504.866042,514.003187 436.872485,457.486149 360.815868,462.045012 C293.346432,466.089156 245.001285,540.561388 186.162749,511.121049 C139.514594,487.780266 183.970403,418.391472 163.829006,334.12153 C143.687609,249.851588 46.0688796,193.591984 83.8979382,144.97953 Z" transform="rotate(30 313.097 304.385)"/>
    <path d="M105.615107,188.067371 C143.249971,139.704467 226.47565,228.478968 325.823056,207.132658 C425.170463,185.786348 490.328794,121.138349 532.592591,139.033563 C597.471806,166.50453 499.036246,247.825483 502.82692,341.083739 C506.617594,434.341995 567.513328,451.465057 538.216955,498.476108 C510.484016,542.97836 445.090755,488.622717 371.942791,493.007234 C307.053606,496.896717 260.557336,568.520887 203.968978,540.206443 C159.1048,517.758288 201.860474,451.023148 182.48935,369.975963 C163.118225,288.928779 69.2327546,234.820726 105.615107,188.067371 Z"/>
  </g>
</svg>
